HIERARCHY
ROOT Hips
{
	OFFSET 0.00000 0.00000 0.00000
	CHANNELS 6 Xposition Yposition Zposition Zrotation Yrotation Xrotation 
	JOINT LHipJoint
	{
		OFFSET 0 0 0
		CHANNELS 3 Zrotation Yrotation Xrotation
		JOINT LeftHip
		{
			OFFSET 1.36306 -1.79463 0.83929
			CHANNELS 3 Zrotation Yrotation Xrotation
			JOINT LeftKnee
			{
				OFFSET 2.44811 -6.72613 0.00000
				CHANNELS 3 Zrotation Yrotation Xrotation
				JOINT LeftAnkle
				{
					OFFSET 2.56220 -7.03959 0.00000
					CHANNELS 3 Zrotation Yrotation Xrotation
					JOINT LeftToe
					{
						OFFSET 0.15764 -0.43311 2.32255
						CHANNELS 3 Zrotation Yrotation Xrotation
						End Site
						{
							OFFSET 0.00000 -0.00000 1.18966
						}
					}
				}
			}
		}
	}
	JOINT RHipJoint
	{
		OFFSET 0 0 0
		CHANNELS 3 Zrotation Yrotation Xrotation
		JOINT RightHip
		{
			OFFSET -1.30552 -1.79463 0.83929
			CHANNELS 3 Zrotation Yrotation Xrotation
			JOINT RightKnee
			{
				OFFSET -2.54253 -6.98555 0.00000
				CHANNELS 3 Zrotation Yrotation Xrotation
				JOINT RightAnkle
				{
					OFFSET -2.56826 -7.05623 0.00000
					CHANNELS 3 Zrotation Yrotation Xrotation
					JOINT RightToe
					{
						OFFSET -0.16473 -0.45259 2.36315
						CHANNELS 3 Zrotation Yrotation Xrotation
						End Site
						{
							OFFSET -0.00000 -0.00000 1.21082
						}
					}
				}
			}
		}
	}
	JOINT lowerback
	{
		OFFSET 0 0 0
		CHANNELS 3 Zrotation Yrotation Xrotation
		JOINT Chest
		{
			OFFSET 0.02827 2.03559 -0.19338
			CHANNELS 3 Zrotation Yrotation Xrotation
			JOINT Chest2
			{
				OFFSET 0.05672 2.04885 -0.04275
				CHANNELS 3 Zrotation Yrotation Xrotation
				JOINT lowerneck
				{
					OFFSET 0 0 0
					CHANNELS 3 Zrotation Yrotation Xrotation
					JOINT Neck
					{
						OFFSET -0.05417 1.74624 0.17202
						CHANNELS 3 Zrotation Yrotation Xrotation
						JOINT Head
						{
							OFFSET 0.10407 1.76136 -0.12397
							CHANNELS 3 Zrotation Yrotation Xrotation
							End Site
							{
								OFFSET 0.03720 1.77044 -0.06241
							}
						}
					}
				}
				JOINT LeftCollar
				{
					OFFSET 0 0 0
					CHANNELS 3 Zrotation Yrotation Xrotation
					JOINT LeftShoulder
					{
						OFFSET 3.36241 1.20089 -0.31121
CHANNELS 3 Zrotation Xrotation Yrotation
						JOINT LeftElbow
						{
OFFSET 0 -4.983000 -0.000000
CHANNELS 3 Zrotation Xrotation Yrotation
							JOINT LeftWrist
							{
OFFSET 0 -3.483560 -0.000000
CHANNELS 3 Zrotation Xrotation Yrotation
								JOINT lhand
								{
									OFFSET 0 0 0
CHANNELS 3 Zrotation Xrotation Yrotation
									JOINT LFingers
									{
OFFSET 0 -0.715260 -0.000000
CHANNELS 3 Zrotation Xrotation Yrotation
										End Site
										{
OFFSET 0 -0.576660 -0.000000
										}
									}
								}
								JOINT LThumb
								{
OFFSET 0 0.000000 0.000000
CHANNELS 3 Zrotation Xrotation Yrotation
									End Site
									{
OFFSET 0 -0.585470 0.585470
									}
								}
							}
						}
					}
				}
				JOINT RightCollar
				{
					OFFSET 0 0 0
					CHANNELS 3 Zrotation Yrotation Xrotation
					JOINT RightShoulder
					{
						OFFSET -3.13660 1.37405 -0.40465
CHANNELS 3 Zrotation Xrotation Yrotation
						JOINT RightElbow
						{
OFFSET 0 -5.241900 -0.000000
CHANNELS 3 Zrotation Xrotation Yrotation
							JOINT RightWrist
							{
OFFSET 0 -3.444170 -0.000000
CHANNELS 3 Zrotation Xrotation Yrotation
								JOINT rhand
								{
									OFFSET 0 0 0
CHANNELS 3 Zrotation Xrotation Yrotation
									JOINT RFingers
									{
OFFSET 0 -0.622530 -0.000000
CHANNELS 3 Zrotation Xrotation Yrotation
										End Site
										{
OFFSET 0 -0.501900 -0.000000
										}
									}
								}
								JOINT RThumb
								{
OFFSET 0 0.000000 0.000000
CHANNELS 3 Zrotation Xrotation Yrotation
									End Site
									{
OFFSET 0 -0.509560 0.509560
									}
								}
							}
						}
					}
				}
			}
		}
	}
}
MOTION
Frames: 6
Frame Time: 0.008333333333333333
12.727400 17.798400 16.010800 -72.420000 -83.956600 74.665300 0.000000 0.000000 0.000000 -12.199000 -1.223500 -4.838700 2.337300 9.535900 27.486700 1.364600 -1.061300 -21.770700 0.036900 -1.239400 -3.407800 0.000000 0.000000 0.000000 29.699000 4.455300 -3.386800 -2.265500 -9.398500 27.050000 -1.173800 -0.599100 -20.705800 -1.075200 -6.591400 18.510300 1.573700 -1.172200 -1.773100 3.472700 -1.597700 -3.647000 2.704000 -0.834100 -2.698100 -9.130700 -5.867400 -5.180100 -1.637800 -7.011700 13.342500 0.520900 -4.060400 5.159000 0.000000 -0.000000 0.000000 40.821000 -48.113300 -19.054200 148.495600 -42.148500 107.593000 51.078600 -15.086600 23.768500 0.000000 0.000000 0.000000 -7.125000 0.000000 0.000000 12.773400 -4.285600 14.034600 0.000000 -0.000000 0.000000 -3.650900 -0.689200 20.271900 -13.352400 -21.801300 -2.582700 -18.862700 -3.161900 23.168200 0.000000 0.000000 0.000000 7.125000 0.000000 -0.000000 10.789500 53.990500 -2.406000
12.726748 17.802128 16.043916 -94.253111 -84.138019 96.855030 0.000000 0.000000 0.000000 -12.515961 -0.941275 -4.758057 2.302591 9.469809 27.276223 1.359279 0.430950 -22.209144 0.013647 -0.753258 -2.070244 0.000000 0.000000 0.000000 29.488828 5.355454 -3.620327 -2.300103 -9.465093 27.261326 -1.140634 0.191741 -20.134935 -0.886810 -6.002685 16.792230 1.984975 -1.455135 -2.058858 3.755558 -1.995606 -3.798800 2.763272 -1.048229 -2.685619 -8.173535 -4.986036 -6.151200 -1.960427 -5.767714 13.892011 0.323199 -3.448931 5.405281 0.000000 0.000000 0.000000 40.499630 -48.812535 -18.219369 148.884664 -41.830421 107.853276 51.330582 -15.120281 24.060230 0.000000 0.000000 0.000000 -7.125000 0.000000 0.000000 12.831168 -4.781571 14.200045 0.000000 0.000000 0.000000 -3.293142 -0.919127 22.151833 -14.076468 -22.843812 -2.857829 -17.948872 -5.985119 23.210560 0.000000 0.000000 0.000000 7.125000 0.000000 0.000000 11.730346 53.861844 -2.581134
12.736538 17.800525 16.088272 -113.577274 -84.077712 116.239815 0.000000 0.000000 0.000000 -13.240417 -0.193416 -4.711881 2.273550 9.413969 27.099061 1.406310 0.616175 -22.655161 0.000231 0.093631 0.257200 0.000000 0.000000 0.000000 28.553994 5.226305 -4.092038 -2.355703 -9.570636 27.597291 -1.106008 1.765457 -19.370762 -0.737313 -5.485266 15.297941 2.088800 -1.476539 -2.072721 3.978088 -2.034529 -3.581131 2.929143 -1.069314 -2.447499 -7.687069 -4.241223 -7.103632 -2.091263 -4.690464 13.472407 0.267050 -2.890025 5.384431 0.000000 0.000000 0.000000 40.392769 -49.489598 -16.747586 149.737579 -41.117163 108.418164 50.296437 -15.831949 25.769143 0.000000 0.000000 0.000000 -7.125000 0.000000 0.000000 11.785718 -6.400512 13.290255 0.000000 0.000000 0.000000 -3.456485 -0.985805 22.100074 -14.047185 -22.801409 -2.846839 -19.509152 -5.354679 23.101958 0.000000 0.000000 0.000000 7.125000 0.000000 0.000000 10.105505 54.045983 -2.264705
12.738019 17.804098 16.091927 -125.825773 -82.932131 128.705501 0.000000 0.000000 0.000000 -12.944427 1.356667 -5.349995 2.310469 9.484825 27.324014 1.422648 0.591213 -22.776118 0.000460 0.041841 0.114982 0.000000 0.000000 0.000000 28.844294 6.663337 -3.748044 -2.330514 -9.522941 27.445378 -1.084608 2.018050 -19.114560 -0.749801 -5.530759 15.428809 2.360318 -1.204049 -1.999962 4.266986 -1.678102 -3.526573 3.077619 -0.899232 -2.444720 -7.173778 -3.283882 -7.305596 -1.573319 -3.495937 13.099967 0.434498 -2.229740 5.263488 0.000000 0.000000 0.000000 40.362900 -50.100643 -15.932737 150.701788 -40.284162 109.046966 49.213792 -13.059444 23.996261 0.000000 0.000000 0.000000 -7.125000 0.000000 0.000000 11.675840 -3.666399 12.657424 0.000000 0.000000 0.000000 -3.436822 -0.036083 20.536427 -13.449148 -21.941644 -2.618757 -17.630359 -5.244487 22.634138 0.000000 0.000000 0.000000 7.125000 0.000000 0.000000 11.805620 53.224148 -2.415071
12.747236 17.799008 16.101853 -128.294180 -82.407474 131.449766 0.000000 0.000000 0.000000 -12.806103 1.175193 -5.634234 2.342737 9.546232 27.519498 1.475078 0.936009 -23.316517 0.003356 0.373230 1.025448 0.000000 0.000000 0.000000 29.057513 6.696927 -3.951579 -2.295455 -9.456143 27.232835 -1.047714 1.218961 -18.980831 -0.371387 -3.906923 10.815972 2.490830 -1.579254 -1.976660 4.299266 -2.179152 -3.626362 3.042191 -1.155318 -2.547013 -5.045570 -2.085294 -7.171713 -2.064643 -2.078026 13.527795 0.036624 -1.479585 5.296385 0.000000 0.000000 0.000000 41.714240 -49.194251 -13.919018 151.718814 -39.373676 109.698391 47.331487 -13.107317 23.445211 0.000000 0.000000 0.000000 -7.125000 0.000000 0.000000 10.762029 -2.128769 11.354062 0.000000 0.000000 0.000000 -3.127022 0.953852 18.410155 -11.905364 -19.662418 -2.070389 -19.377174 -3.627710 21.651362 0.000000 0.000000 0.000000 7.125000 0.000000 0.000000 9.672777 52.544430 -1.811826
12.792374 17.785910 16.079728 -129.313638 -83.750796 131.708204 0.000000 0.000000 0.000000 -13.799241 1.520075 -4.954237 2.259714 9.387399 27.014735 1.415375 0.711919 -22.762322 0.002445 0.319296 0.877216 0.000000 0.000000 0.000000 27.966299 5.869658 -3.942774 -2.409300 -9.671058 27.918044 -1.100668 1.610542 -19.359620 -0.499273 -4.529762 12.572100 0.967464 -1.752889 -0.532164 3.951388 -2.339584 -3.277758 3.580394 -1.183152 -2.946649 -4.061748 -1.761172 -7.469590 -2.054173 -1.734338 13.948643 -0.102106 -1.270474 5.459885 0.000000 0.000000 0.000000 41.317586 -49.954249 -14.045002 152.132354 -38.994107 109.959691 45.208363 -13.361850 23.161376 0.000000 0.000000 0.000000 -7.125000 0.000000 0.000000 9.620929 -0.899909 9.910778 0.000000 0.000000 0.000000 -3.102715 1.458865 12.365108 -10.122155 -16.930377 -1.510354 -20.973874 1.069884 21.140836 0.000000 0.000000 0.000000 7.125000 0.000000 0.000000 7.893293 52.305791 -1.426937
